<mxfile host="app.diagrams.net" modified="2023-11-13T02:23:10.473Z" agent="Mozilla/5.0 (Windows NT 10.0; Win64; x64) AppleWebKit/537.36 (KHTML, like Gecko) Chrome/119.0.0.0 Safari/537.36" etag="8Y0iZpswBOipwA7UF_ug" version="21.7.5" type="github">
  <diagram name="第 1 页" id="0khi-y4i2Tu5UxIGoybB">
    <mxGraphModel dx="1258" dy="950" grid="0" gridSize="10" guides="1" tooltips="1" connect="1" arrows="1" fold="1" page="0" pageScale="1" pageWidth="827" pageHeight="1169" math="1" shadow="0">
      <root>
        <mxCell id="0" />
        <mxCell id="1" parent="0" />
        <mxCell id="_pKEH9My9L13lh35LSAF-10" style="edgeStyle=none;curved=1;rounded=0;orthogonalLoop=1;jettySize=auto;html=1;fontSize=12;startSize=8;endSize=8;" parent="1" source="_pKEH9My9L13lh35LSAF-1" target="_pKEH9My9L13lh35LSAF-9" edge="1">
          <mxGeometry relative="1" as="geometry" />
        </mxCell>
        <mxCell id="_pKEH9My9L13lh35LSAF-1" value="外激式" style="rounded=0;whiteSpace=wrap;html=1;fontSize=16;fillColor=#ffe6cc;strokeColor=#d79b00;" parent="1" vertex="1">
          <mxGeometry x="-103" y="35" width="95" height="32" as="geometry" />
        </mxCell>
        <mxCell id="_pKEH9My9L13lh35LSAF-11" style="edgeStyle=none;curved=1;rounded=0;orthogonalLoop=1;jettySize=auto;html=1;entryX=0.647;entryY=1.013;entryDx=0;entryDy=0;entryPerimeter=0;fontSize=12;startSize=8;endSize=8;" parent="1" source="_pKEH9My9L13lh35LSAF-2" target="_pKEH9My9L13lh35LSAF-9" edge="1">
          <mxGeometry relative="1" as="geometry" />
        </mxCell>
        <mxCell id="_pKEH9My9L13lh35LSAF-2" value="自激式" style="rounded=0;whiteSpace=wrap;html=1;fontSize=16;fillColor=#ffe6cc;strokeColor=#d79b00;" parent="1" vertex="1">
          <mxGeometry x="46" y="7" width="66" height="38" as="geometry" />
        </mxCell>
        <mxCell id="_pKEH9My9L13lh35LSAF-6" style="edgeStyle=none;curved=1;rounded=0;orthogonalLoop=1;jettySize=auto;html=1;fontSize=12;startSize=8;endSize=8;" parent="1" source="_pKEH9My9L13lh35LSAF-3" target="_pKEH9My9L13lh35LSAF-1" edge="1">
          <mxGeometry relative="1" as="geometry" />
        </mxCell>
        <mxCell id="_pKEH9My9L13lh35LSAF-3" value="串激式" style="rounded=0;whiteSpace=wrap;html=1;fontSize=16;fillColor=#f8cecc;strokeColor=#b85450;" parent="1" vertex="1">
          <mxGeometry x="-143" y="119" width="64" height="31" as="geometry" />
        </mxCell>
        <mxCell id="_pKEH9My9L13lh35LSAF-7" style="edgeStyle=none;curved=1;rounded=0;orthogonalLoop=1;jettySize=auto;html=1;entryX=0.5;entryY=1;entryDx=0;entryDy=0;fontSize=12;startSize=8;endSize=8;" parent="1" source="_pKEH9My9L13lh35LSAF-4" target="_pKEH9My9L13lh35LSAF-1" edge="1">
          <mxGeometry relative="1" as="geometry" />
        </mxCell>
        <mxCell id="_pKEH9My9L13lh35LSAF-4" value="分激式" style="rounded=0;whiteSpace=wrap;html=1;fontSize=16;fillColor=#f8cecc;strokeColor=#b85450;" parent="1" vertex="1">
          <mxGeometry x="-51" y="109" width="70" height="26" as="geometry" />
        </mxCell>
        <mxCell id="_pKEH9My9L13lh35LSAF-8" style="edgeStyle=none;curved=1;rounded=0;orthogonalLoop=1;jettySize=auto;html=1;entryX=0.595;entryY=1;entryDx=0;entryDy=0;entryPerimeter=0;fontSize=12;startSize=8;endSize=8;" parent="1" source="_pKEH9My9L13lh35LSAF-5" target="_pKEH9My9L13lh35LSAF-1" edge="1">
          <mxGeometry relative="1" as="geometry" />
        </mxCell>
        <mxCell id="_pKEH9My9L13lh35LSAF-5" value="複激式" style="rounded=0;whiteSpace=wrap;html=1;fontSize=16;fillColor=#f8cecc;strokeColor=#b85450;" parent="1" vertex="1">
          <mxGeometry x="46" y="85" width="76" height="32" as="geometry" />
        </mxCell>
        <mxCell id="_pKEH9My9L13lh35LSAF-9" value="直流電機" style="rounded=0;whiteSpace=wrap;html=1;fontSize=16;fillColor=#d5e8d4;strokeColor=#82b366;" parent="1" vertex="1">
          <mxGeometry x="-74" y="-68" width="120" height="60" as="geometry" />
        </mxCell>
        <mxCell id="_pKEH9My9L13lh35LSAF-15" style="edgeStyle=none;curved=1;rounded=0;orthogonalLoop=1;jettySize=auto;html=1;fontSize=12;startSize=8;endSize=8;" parent="1" source="_pKEH9My9L13lh35LSAF-12" target="_pKEH9My9L13lh35LSAF-5" edge="1">
          <mxGeometry relative="1" as="geometry" />
        </mxCell>
        <mxCell id="_pKEH9My9L13lh35LSAF-12" value="長並聯" style="rounded=1;whiteSpace=wrap;html=1;fontSize=16;fillColor=#e1d5e7;strokeColor=#9673a6;" parent="1" vertex="1">
          <mxGeometry x="152" y="84" width="72" height="37" as="geometry" />
        </mxCell>
        <mxCell id="_pKEH9My9L13lh35LSAF-14" style="edgeStyle=none;curved=1;rounded=0;orthogonalLoop=1;jettySize=auto;html=1;fontSize=12;startSize=8;endSize=8;" parent="1" source="_pKEH9My9L13lh35LSAF-13" target="_pKEH9My9L13lh35LSAF-5" edge="1">
          <mxGeometry relative="1" as="geometry" />
        </mxCell>
        <mxCell id="_pKEH9My9L13lh35LSAF-13" value="短並聯" style="rounded=1;whiteSpace=wrap;html=1;fontSize=16;fillColor=#e1d5e7;strokeColor=#9673a6;" parent="1" vertex="1">
          <mxGeometry x="152" y="27" width="73" height="36" as="geometry" />
        </mxCell>
        <mxCell id="_pKEH9My9L13lh35LSAF-21" style="edgeStyle=orthogonalEdgeStyle;rounded=0;orthogonalLoop=1;jettySize=auto;html=1;entryX=0.5;entryY=1;entryDx=0;entryDy=0;" parent="1" source="_pKEH9My9L13lh35LSAF-16" target="_pKEH9My9L13lh35LSAF-5" edge="1">
          <mxGeometry relative="1" as="geometry" />
        </mxCell>
        <mxCell id="_pKEH9My9L13lh35LSAF-16" value="差複激式\(\phi_f-\phi_s\)" style="rounded=1;whiteSpace=wrap;html=1;fontSize=16;fillColor=#eeeeee;strokeColor=#36393d;" parent="1" vertex="1">
          <mxGeometry x="80" y="180.5" width="102" height="45" as="geometry" />
        </mxCell>
        <mxCell id="_pKEH9My9L13lh35LSAF-20" style="edgeStyle=orthogonalEdgeStyle;rounded=0;orthogonalLoop=1;jettySize=auto;html=1;entryX=0.25;entryY=1;entryDx=0;entryDy=0;" parent="1" source="_pKEH9My9L13lh35LSAF-17" target="_pKEH9My9L13lh35LSAF-5" edge="1">
          <mxGeometry relative="1" as="geometry" />
        </mxCell>
        <mxCell id="_pKEH9My9L13lh35LSAF-17" value="積複激式\(&lt;br&gt;\phi_f + \phi_s\)" style="rounded=1;whiteSpace=wrap;html=1;fontSize=16;fillColor=#eeeeee;strokeColor=#36393d;" parent="1" vertex="1">
          <mxGeometry x="-43" y="179" width="112" height="48" as="geometry" />
        </mxCell>
      </root>
    </mxGraphModel>
  </diagram>
</mxfile>
